<svg xmlns="http://www.w3.org/2000/svg" version="1.1" viewBox="0 0 1000 500">
  <path d="M953.3 209.9c.7-2 2.3-2.8 4.4-2.8 5.5.2 10.9 0 16.4 0 .6 0 1.2.5 1.2 1.1v.2c.1 1.4-.4 2.7-.9 4-1.2 2.6-2 4.5-3.3 7.6-29.3 67-58.5 134-87.8 201.1-.7 1.4-2.1 2.4-3.8 2.4-5.6-.1-11.3 0-17.2 0-.9 0-1.5-.9-1.2-1.8 2.8-6.6 5.6-12.9 8.3-19.2 6.7-15.5 13.5-30.9 20.3-46.4.9-1.7.9-3.7 0-5.4L827 210c-.2-.4-.4-.9-.5-1.3-.3-.8.3-1.7 1.2-1.7h18.4c1.5 0 1.8 1 2.2 2l34.8 77.9 17.5 39.2c.5 1 1.9 1 2.3-.1l50.4-116.1z" />
  <path d="M798.1 365.2h-28.3c-1.2 0-1.8-.9-2.5-1.5l-75.8-68-2-1.6v3.7c0 21.5 0 43 .1 64.5 0 2.4-.7 3-3 2.9h-15.7c-1.6 0-2.2-.5-2-2v-1.5c0-70.8 0-141.6-.1-212.4 0-3 .8-3.7 3.6-3.5h14.2c2.4-.1 2.9.7 2.9 3-.1 31.7-.1 63.4 0 95.2v26.3c3-2.5 5.6-4.7 8.1-6.9 20.8-18.1 41.6-36.1 62.4-54.2 1.4-1.4 3.4-2.1 5.4-2 8.9.1 17.8 0 27.3 0-2.9 2.5-5.3 4.7-7.7 6.8-25.5 22-51 44-76.6 66-2.1 1.8-2.2 2.7-.1 4.6 29.2 26.2 58.5 52.5 87.6 78.9l2.2 1.7z" />
  <path d="M535.6 368.9c-32.4 0-56.7-10.6-74.7-34.1-12.5-16.3-16.9-34.9-15.1-55.2 3-36.1 30.4-68.9 72.7-75.1 23.1-3.4 44.9.4 65.2 12.2 8.9 5.3 16.4 12.6 21.9 21.4 1 1.5 1 2.2-.7 3.2-4.2 2.5-8.4 5.1-12.5 7.8-1.6 1.1-2.3.6-3.3-.7-10.4-13.1-23.7-21.7-40.3-24.7-29-5.3-57.5 3.3-74 30.2-19.1 31.1-6.2 75.7 30.5 90.7 27.4 11.2 61.8 6.2 83.5-20.5 1.3-1.6 2-1.9 3.8-.7 3.9 2.8 8 5.5 12.1 8 1.9 1.1 1.8 2 .6 3.6-11.7 16-27.4 25.9-46.4 30.8-7.7 2-15.5 3.1-23.3 3.1z" />
  <path d="M265 321c2.3 1.7 10.1 5.4 12.5 6.9 5.9 3.6 5.9 3.6 10.7 7.9 4 3.3 6.2 8.4 5.7 13.7-.5 3.6-1.3 7.1-2.3 10.6-1.1 4.1-2.3 8.2-1.8 12.5 1 8.2 6.5 12.9 13.6 15.6 16.8 6.4 34.1 9.8 52.1 7.3 9.9-1.3 18.1-5.9 23.3-14.9 5.6-9.5 10.7-19.4 15.2-29.5 1.4-2.9 2.4-6 3-9.1.7-2.6-.3-5.4-2.5-7-2.7-2-5.2-4.4-7.4-7 3.1-.2 5.7-.2 8.4-.7 4.8-.9 6.3-3.2 5.1-7.9-2.8-11.3-.3-21 9-28.4 2.4-1.9 4.7-3.8 7.1-5.6 3.8-2.7 7.3-5.8 10.4-9.2 4.3-4.9 6.2-11.6 5-18-1.4-8.6-6-15.7-10.9-22.6-6.1-8.5-12.8-16.7-17.4-26.2-6.7-13.8-7.3-27 3-39.6 8.2-10 9.3-21.4 4.9-33.3-7.2-19.2-18.2-36.1-31.6-51.5-2.4-2.7-5.3-5-8.6-6.6-2.3-1.3-4.9-2-7.5-1.9-4.1 0-8 1.7-10.8 4.7-2.7 2.8-5 6.1-6.5 9.7-3.3 7.1-5.6 14.6-7 22.4-.9 4.5-3.5 6.1-7.4 7.1-5.3 1.4-10.4 0-15.4-1.6-6.8-2.2-13.2-5.4-20.1-7.3-8.5-2.4-16.9-2.4-23.3 4.6-9 9.8-12.8 21.5-10.2 34.9 1.6 8.1 6.1 14.8 10.8 21.4 4.3 6.1 9 11.9 12.6 18.5 6.5 11.9 6.1 28.3-4.5 39.3-2.5 2.6-5 5.2-7.7 7.7-7.3 6.8-15.1 13.1-21.7 20.7-10.9 12.3-13.6 28.3-8 41.8 3 7.2 8.4 13.1 14.9 17.3l5.3 3.3zm10.2-2.5c-8.5-4.5-14.1-9.1-19.7-15.6-3.1-3.8-4.8-8.5-4.9-13.4-.4-2.7-.4-5.4 0-8.1.6-7.4 4.6-13.2 9.3-18.6 7.3-8.4 16.3-15.1 24.1-22.9 6.4-6.2 11.7-13 13.8-21.9 3.1-12.8.5-24.6-6.6-35.4-4.5-6.9-9.5-13.5-14.1-20.3-4.1-6-7-12.5-6.5-20 .5-6.9 2.9-13.5 7.1-19 3.5-4.7 8.4-5.6 13.8-4.5 7.8 1.7 14.9 5.4 22.5 7.8 5.7 1.8 11.4 3.5 17.5 2.2 8.9-1.9 14.4-4.6 16.1-14.4 1.3-7.8 3.8-15.3 7.4-22.3 1.6-3 3.3-6.1 7-7 .5-.2.9-.3 1.4-.3.6 0 1.2.1 1.8.3 5.1 1.1 8.2 4.8 11.3 8.5 6.8 8 12.3 16.9 17.7 25.9 4.1 7 7.9 14.1 10.1 21.9.4 1.4.7 2.9.8 4.3.5 2.7.5 5.4 0 8 0 2.7-1.3 5-2.6 7.2-3.1 5.4-7.4 9.9-9.7 15.8a44.8 44.8 0 0 0-2.3 9.6c-.3 1.9-.3 3.9-.1 5.8.1.5.1 1 .2 1.5 1.2 12.2 6.7 22.5 13.5 32.4 5.2 7.5 11.2 14.6 15.7 22.6 3 5.2 5.4 10.7 3.6 16.9-1.4 4.9-5.3 7.9-9.1 11-5.6 4.6-11.8 8.4-16.4 14.2-3.9 4.8-6.2 10.6-6.8 16.8-.4 2-.4 4.1 0 6.1l.1.9c.4 4.9.4 4.8-4.8 5.2-3.3.2-6.6.8-8.1 4.2-1.5 3.4-.1 6.2 2 8.9 1.6 2.1 3.5 3.9 5.6 5.5 2.5 1.7 2.8 3.7 1.7 6.4-2.8 6.8-6.2 13.3-9.5 19.8-1.9 3.7-4.3 7.1-6.1 10.8-4.2 8.4-11.6 11.4-20.2 12.3-14.6 1.4-28.8-1.5-42.7-6-.8-.3-1.5-.6-2.2-.9-8.9-4-10.3-7.1-8-16.6 1.2-4.7 2.7-9.3 3.1-14.1.7-8.5-2.6-14.9-8.3-20.2-1.7-1.6-3.6-2.9-5.6-4l-12.9-7.3z" fill="#61518f" />
  <path d="M70.3 370.2c-17.5-.5-32.5-6.6-44.6-19.6-1.5-1.6-1.9-2.6-.2-4.4 3.3-3.4 6.4-7 9.4-10.7 1.3-1.6 2.1-1.7 3.6-.1 6.6 7.1 14.2 12.9 24 14.9 12.3 2.5 22.9-.6 31-10.3 8.4-10 7.1-24.9-2.9-33.3-.1-.1-.2-.1-.3-.2-7.6-6.3-16.4-10.6-25-15.2-9.1-4.9-18.1-10.1-24.7-18.1-10.5-12.7-12.4-27.2-6.8-42.3 5.5-14.8 16.9-23.1 32.5-25.7 16.7-2.7 30.9 3.3 43.8 13.2 2.8 2.1 7.2 4.2 7.5 7s-2.7 5.3-5 7.9c-1.8 2-5.1 4.9-7.3 5.2-1.7.3-4-2.9-6-4.5-6.8-5.4-14.2-9.4-23-10.5-12.2-1.6-24.4 6.7-26.5 18.7-1.4 8.3 2.4 14.9 8.3 20.3s12.9 9.3 20 13c7.9 4.1 15.5 8.7 22.7 13.9 26.3 19.1 22.5 57.4-4.1 73.7-8.1 4.9-17.2 7.3-26.4 7.1z" />
  <path d="M222.7 363.3c0 2.5-.6 3.1-3.1 3.1h-14.8c-2.6 0-2.9-.8-2.9-3 .1-44.6 0-89.3.1-133.9 0-2.9-.5-3.8-3.7-3.8-7.2 0-14.3 0-21.5.1-1.8 0-2.7-.2-2.5-2.4v-13c-.1-2 .6-2.3 2.4-2.3 7.5.1 14.9 0 22.4.1 2.3 0 3-.5 3-2.9-.1-17.7 0-35.3-.1-53 0-2.3.5-3.1 3-3h15.4c2.1 0 2.5.6 2.5 2.5-.1 17.7 0 35.3-.1 53 0 2.9.9 3.4 3.5 3.3 8.8-.2 17.6 0 26.4-.1 2 0 2.5.5 2.5 2.5v12.7c.1 2-.6 2.5-2.5 2.5-9-.1-18 0-27-.1-2.2 0-2.8.3-2.8 2.8l-.2 134.9z" />
  <path d="M349.7 132.5c-2.1 0-3.1.7-3.4 2.9-.8 5.4-1.7 10.7-2.5 16.1-2 12.1-3.9 24.2-5.8 36.3l-6.3 39.6c-2.3 14.7-4.7 29.3-7.1 44-1.6 10-3.1 20-5 30-.3 1.9-.4 3.1 1.3 4H353c1.1-.7 1.7-1.8 1.7-3.1 2.3-14.3 4.5-28.6 6.8-42.8 2.1-13.3 4.3-26.7 6.4-39.9s4.2-26.4 6.4-39.6c2.3-14.5 4.6-29.1 6.9-43.7.5-2.8-.1-3.7-3-3.7h-28.5v-.1z" fill="#61518f" />
  <path d="M333.7 314.6c-3.9 0-7.7.7-11.3 2.1-8.2 3.4-13.8 9.2-15.5 18.2-.4 1.8-.4 3.7 0 5.5.1.8.2 1.6.4 2.3 2.9 10.3 11.7 17 23.9 18.3 1.4.1 2.8.1 4.2 0 13.2-1.4 22.2-9 24.3-20.7.2-1.8.1-3.3 0-4.8-.5-4.2-2.3-8.2-5.1-11.4-5.3-6-12.9-9.4-20.9-9.5z" fill="#61518f" />
</svg>
